<svg id="vector" xmlns="http://www.w3.org/2000/svg" width="159" height="110" viewBox="0 0 159 110">
  <path fill="#00ff00"
    d="M154,17.25c-1.82,-6.73 -7.07,-12 -13.8,-13.8c-9.04,-3.49 -96.6,-5.2 -122,0.1c-6.73,1.82 -12,7.07 -13.8,13.8c-4.08,17.9 -4.39,56.6 0.1,74.9c1.82,6.73 7.07,12 13.8,13.8c17.9,4.12 103,4.7 122,0c6.73,-1.82 12,-7.07 13.8,-13.8c4.35,-19.5 4.66,-55.8 -0.1,-75l0,0z"
    id="path_0" />
  <path fill="#000" stroke="#000000" stroke-width="1"
    d="M91.82,79.06c-5.01,0 -10.02,-1.91 -13.83,-5.71c-4.72,-4.72 -12.4,-4.72 -17.11,0c-1.46,1.46 -3.82,1.46 -5.28,0s-1.46,-3.82 0,-5.28c7.62,-7.62 20.03,-7.62 27.66,0c4.72,4.72 12.4,4.72 17.11,0c1.46,-1.46 3.82,-1.46 5.28,0c1.46,1.46 1.46,3.82 0,5.28c-3.8,3.8 -8.82,5.71 -13.82,5.71l-0.01,0zm0,-14.92c-5.01,0 -10.02,-1.91 -13.83,-5.71c-4.72,-4.72 -12.4,-4.72 -17.11,0c-1.46,1.46 -3.82,1.46 -5.28,0c-1.46,-1.46 -1.46,-3.82 0,-5.28c7.62,-7.62 20.03,-7.62 27.66,0c4.72,4.72 12.4,4.72 17.11,0c1.46,-1.46 3.82,-1.46 5.28,0c1.46,1.46 1.46,3.82 0,5.28c-3.8,3.8 -8.82,5.71 -13.82,5.71l-0.01,0zm0,-14.93c-5.01,0 -10.02,-1.91 -13.83,-5.71c-4.72,-4.72 -12.4,-4.72 -17.11,0c-1.46,1.46 -3.82,1.46 -5.28,0s-1.46,-3.82 0,-5.28c7.62,-7.62 20.03,-7.62 27.66,0c4.72,4.72 12.4,4.72 17.11,0c1.46,-1.46 3.82,-1.46 5.28,0c1.46,1.46 1.46,3.82 0,5.28c-3.8,3.8 -8.82,5.71 -13.82,5.71l-0.01,0z"
    id="path_1" />
</svg>